Coordinates
version=1
nRows=26
nColumns=22
inDegrees=yes

Units are S.I. units (second, meters, Newtons, ...)
If the header above contains a line with 'inDegrees', this indicates whether rotational values are in degrees (yes) or radians (no).

endheader
time	pelvis_tilt	pelvis_list	pelvis_rotation	pelvis_tx	pelvis_ty	pelvis_tz	hip_flexion_r	hip_adduction_r	hip_rotation_r	knee_angle_r	ankle_angle_r	subtalar_angle_r	hip_flexion_l	hip_adduction_l	hip_rotation_l	knee_angle_l	ankle_angle_l	subtalar_angle_l	lumbar_extension	lumbar_bending	lumbar_rotation
      0.01000000	      4.43953730	     -3.44327338	      3.69527235	      0.17584441	      0.95342700	      1.17961805	     -4.99847035	      3.20978325	    -13.30380247	     -8.69798995	      9.53073035	      3.39082232	     -4.12156054	     -3.35510447	    -13.25089137	    -12.41214592	     20.38562267	     -6.21445085	    -10.74814052	      3.74506898	    -10.54017807
      0.02000000	      4.43775439	     -3.44201778	      3.69697349	      0.17578795	      0.95343234	      1.17969217	     -4.99219740	      3.21455992	    -13.30494570	     -8.69593819	      9.53088439	      3.39187516	     -4.11625029	     -3.35914833	    -13.24978842	    -12.41021183	     20.38358510	     -6.21428007	    -10.76385434	      3.74381698	    -10.54041672
      0.03000000	      4.44965332	     -3.44979130	      3.70405545	      0.17567312	      0.95345633	      1.17978197	     -4.98075813	      3.22823797	    -13.30956324	     -8.72807945	      9.52856254	      3.39730167	     -4.10508580	     -3.37904126	    -13.23131972	    -12.44060369	     20.37036073	     -6.21158505	    -10.80739004	      3.75533299	    -10.53015500
      0.04000000	      4.45441706	     -3.45810300	      3.70699473	      0.17556848	      0.95346963	      1.17988960	     -4.96249063	      3.24177027	    -13.33069983	     -8.75733509	      9.52718410	      3.40198255	     -4.09097370	     -3.39928898	    -13.22806664	    -12.46333354	     20.36813037	     -6.20659171	    -10.84139178	      3.76722653	    -10.51820471
      0.05000000	      4.45604800	     -3.46495274	      3.70775397	      0.17546137	      0.95347753	      1.18001133	     -4.93761433	      3.25331308	    -13.35225615	     -8.79332809	      9.52670009	      3.40395700	     -4.07306850	     -3.41833293	    -13.22824181	    -12.48696809	     20.37196083	     -6.20059971	    -10.87229796	      3.77779045	    -10.50655828
      0.06000000	      4.45619984	     -3.47055192	      3.70729710	      0.17535973	      0.95348113	      1.18013892	     -4.90848602	      3.26295114	    -13.37306638	     -8.83522726	      9.52825927	      3.40250082	     -4.05335845	     -3.43594173	    -13.22985903	    -12.51214194	     20.37755850	     -6.19495727	    -10.90059479	      3.78873132	    -10.49652853
      0.07000000	      4.45634858	     -3.47279341	      3.70782450	      0.17527675	      0.95348198	      1.18026506	     -4.87927162	      3.26893090	    -13.39018286	     -8.88148623	      9.53259598	      3.39668344	     -4.03429548	     -3.44967983	    -13.23112813	    -12.53779013	     20.38396141	     -6.19025361	    -10.92511938	      3.79792879	    -10.49216154
      0.08000000	      4.45745959	     -3.46998951	      3.71094798	      0.17521319	      0.95348043	      1.18038865	     -4.85438012	      3.27110756	    -13.40030272	     -8.92438665	      9.53940011	      3.38648022	     -4.01959765	     -3.45718839	    -13.22879528	    -12.55926397	     20.38900420	     -6.18754574	    -10.94760596	      3.80257925	    -10.49475159
      0.09000000	      4.46145332	     -3.46281515	      3.71677967	      0.17517945	      0.95348139	      1.18050687	     -4.83730461	      3.26978557	    -13.40358903	     -8.96405925	      9.54725041	      3.37250429	     -4.01155014	     -3.45910754	    -13.22148101	    -12.57618284	     20.39153737	     -6.18718696	    -10.96851324	      3.80343671	    -10.50309798
      0.10000000	      4.46886471	     -3.45215944	      3.72534002	      0.17517363	      0.95348690	      1.18062934	     -4.82776894	      3.26648810	    -13.40133112	     -9.00110296	      9.55544335	      3.35525451	     -4.01082256	     -3.45759244	    -13.20972173	    -12.58922983	     20.39172992	     -6.18900725	    -10.98926293	      3.79922484	    -10.51588185
      0.11000000	      4.47952782	     -3.43823011	      3.73382472	      0.17518777	      0.95349837	      1.18075891	     -4.82582839	      3.26081268	    -13.39740152	     -9.03324124	      9.56565535	      3.33286938	     -4.01692199	     -3.45218226	    -13.19421788	    -12.59811856	     20.38973647	     -6.19328877	    -11.01233425	      3.79067776	    -10.53068033
      0.12000000	      4.51540984	     -3.40699837	      3.74450021	      0.17526030	      0.95355218	      1.18088363	     -4.86447105	      3.23824826	    -13.42490404	     -9.04939743	      9.61487898	      3.22457236	     -4.07391797	     -3.42386965	    -13.16091783	    -12.56859281	     20.37010351	     -6.22667622	    -11.05753442	      3.76336081	    -10.54290558
      0.13000000	      4.51351627	     -3.39985237	      3.74475975	      0.17532763	      0.95355052	      1.18103436	     -4.86500561	      3.24106281	    -13.42465774	     -9.05044986	      9.61475134	      3.22442753	     -4.07462498	     -3.42491537	    -13.16057717	    -12.56905711	     20.37005184	     -6.22676143	    -11.05830426	      3.76548425	    -10.54281684
      0.14000000	      4.53503030	     -3.38775827	      3.74108276	      0.17536201	      0.95358415	      1.18122194	     -4.87978918	      3.24093947	    -13.39905947	     -9.07158047	      9.61414404	      3.21119687	     -4.09126648	     -3.42428816	    -13.14414422	    -12.58849847	     20.36501482	     -6.23350140	    -11.09520110	      3.75730021	    -10.53989385
      0.15000000	      4.59477970	     -3.37085163	      3.72383078	      0.17547415	      0.95368379	      1.18142796	     -4.96318903	      3.24079850	    -13.37921855	     -9.04560643	      9.63527956	      3.17180173	     -4.18209989	     -3.41655928	    -13.16353371	    -12.55788155	     20.35236313	     -6.26458576	    -11.16856242	      3.74815831	    -10.51558698
      0.16000000	      4.59376374	     -3.36235041	      3.71546327	      0.17555045	      0.95369090	      1.18161146	     -4.96617543	      3.24198414	    -13.38109373	     -9.04246683	      9.63532163	      3.17176338	     -4.18385293	     -3.41637038	    -13.15889387	    -12.56309392	     20.35166770	     -6.26486698	    -11.17097871	      3.75275769	    -10.51243562
      0.17000000	      4.59137515	     -3.35367231	      3.71528016	      0.17562789	      0.95369769	      1.18179306	     -4.96719704	      3.24402558	    -13.38129038	     -9.04257150	      9.63542807	      3.17186219	     -4.18437900	     -3.41821551	    -13.15829816	    -12.56381656	     20.35155070	     -6.26493901	    -11.17222406	      3.75597960	    -10.51156001
      0.18000000	      4.60809593	     -3.34260342	      3.71640122	      0.17569685	      0.95373174	      1.18197400	     -5.00338806	      3.24792201	    -13.37830351	     -9.01241238	      9.64712567	      3.18204781	     -4.19004845	     -3.42116612	    -13.14136625	    -12.59758595	     20.34355373	     -6.26870833	    -11.20091844	      3.75571836	    -10.47277912
      0.19000000	      4.64684253	     -3.33910212	      3.72465694	      0.17580016	      0.95379987	      1.18214501	     -5.07832944	      3.26638619	    -13.33841256	     -8.95936861	      9.65863023	      3.21811145	     -4.23356543	     -3.43357446	    -13.14405971	    -12.60487049	     20.33870623	     -6.27702895	    -11.24940032	      3.77045740	    -10.49492431
      0.20000000	      4.64366620	     -3.33108924	      3.72520138	      0.17588715	      0.95380591	      1.18232144	     -5.08009583	      3.26785202	    -13.33828719	     -8.96010690	      9.65837746	      3.21835778	     -4.23414555	     -3.43582539	    -13.14358105	    -12.60499280	     20.33874456	     -6.27704360	    -11.25020764	      3.77339140	    -10.49434334
      0.21000000	      4.66739337	     -3.32740924	      3.74791524	      0.17601492	      0.95385422	      1.18246234	     -5.15366242	      3.28920542	    -13.28052778	     -8.88354295	      9.62764318	      3.26566903	     -4.26255137	     -3.44510880	    -13.10202163	    -12.60891871	     20.33836451	     -6.27698974	    -11.27353776	      3.78656356	    -10.51424735
      0.22000000	      4.67273503	     -3.31843075	      3.76816909	      0.17611390	      0.95387349	      1.18262931	     -5.18997472	      3.30063628	    -13.25066594	     -8.83888017	      9.61919328	      3.28570482	     -4.26501629	     -3.45107706	    -13.08250193	    -12.62011421	     20.33440349	     -6.27734465	    -11.28305709	      3.78093915	    -10.52029454
      0.23000000	      4.67341558	     -3.31487607	      3.79071951	      0.17623186	      0.95388533	      1.18278048	     -5.22672147	      3.31901336	    -13.20051043	     -8.78669556	      9.61034130	      3.30080622	     -4.27031930	     -3.46072861	    -13.06198415	    -12.61702741	     20.33208208	     -6.27691938	    -11.28259547	      3.78656092	    -10.55849016
      0.24000000	      4.67263416	     -3.30824334	      3.81414335	      0.17635545	      0.95389482	      1.18292459	     -5.27015848	      3.33539072	    -13.15555523	     -8.71910898	      9.59690392	      3.31079969	     -4.27037968	     -3.46674059	    -13.03220607	    -12.62379004	     20.32877299	     -6.27566410	    -11.27960766	      3.78693981	    -10.57131997
      0.25000000	      4.66742329	     -3.30358704	      3.83507407	      0.17648088	      0.95389950	      1.18308245	     -5.30746345	      3.35459979	    -13.10644922	     -8.65483452	      9.58143343	      3.31600973	     -4.27333103	     -3.47429842	    -13.01325353	    -12.61455905	     20.32453002	     -6.27488619	    -11.27193930	      3.78762252	    -10.60680034
      0.26000000	      4.65928915	     -3.29717651	      3.85424388	      0.17659620	      0.95390057	      1.18324343	     -5.34087551	      3.36978730	    -13.07528804	     -8.59062823	      9.56614276	      3.31792365	     -4.26949515	     -3.48010540	    -12.98949890	    -12.61291915	     20.31826572	     -6.27358216	    -11.26329757	      3.78180800	    -10.61017403
